# xmcd
# 
# Track frame offsets:
#     150
#     17300
#     33225
#     50500
#     69675
#     91287
#     113137
#     133875
#     151475
#     182000
#     198800
#     218075
#     240950
#     259625
# 
# Disc length: 3768
# 
# Revision: 7
# Processed by: cddbd v1.5.2PL0 Copyright (c) Steve Scherf et al.
# Submitted via: fre:ac v1.0.17
# 
DISCID=b30eb60e
DTITLE=工藤静香 - She Best of Best（DISC1)
DYEAR=1996
DGENRE=JPop
TTITLE0=FU-JI-TSU
TTITLE1=嵐の素顔
TTITLE2=黄砂に吹かれて
TTITLE3=メタモルフォーゼ
TTITLE4=慟哭
TTITLE5=ワインひとくちの嘘
TTITLE6=証拠をみせて
TTITLE7=硝子のサンクチュアリ
TTITLE8=素直に言って
TTITLE9=震える1秒
TTITLE10=霧の彼方へ
TTITLE11=黄昏が夜になる
TTITLE12=渇いた花
TTITLE13=そのあとは雨の中
EXTD=
EXTT0=
EXTT1=
EXTT2=
EXTT3=
EXTT4=
EXTT5=
EXTT6=
EXTT7=
EXTT8=
EXTT9=
EXTT10=
EXTT11=
EXTT12=
EXTT13=
PLAYORDER=
